<svg width="16px" height="16px" xmlns="http://www.w3.org/2000/svg" xmlns:xlink="http://www.w3.org/1999/xlink">
<g style="">  <path d="M14.922226,15.777865 C15.394647,15.777865,15.777745,15.394767,15.777745,14.922226 L15.777745,1.131549 C15.777745,0.658947,15.394707,0.275970,14.922226,0.275970 L1.131549,0.275970 C0.658947,0.275970,0.275970,0.658947,0.275970,1.131549 L0.275970,14.922226 C0.275970,15.394707,0.658887,15.777865,1.131549,15.777865 L14.922226,15.777865 Z" style="fill: rgba(46, 69, 135, 1.000000); stroke-width: 0.000000px; stroke: rgba(0, 0, 0, 1.000000); " fill="#3c5a99" stroke="#000000" stroke-width="0.000000" />
  <path d="M10.971970,15.777865 L10.971970,9.774677 L12.986948,9.774677 L13.288662,7.435128 L10.971970,7.435128 L10.971970,5.941473 C10.971970,5.264120,11.160060,4.802526,12.131369,4.802526 L13.370226,4.801985 L13.370226,2.709473 C13.155970,2.680962,12.420572,2.617263,11.564993,2.617263 C9.778827,2.617263,8.555970,3.707548,8.555970,5.709774 L8.555970,7.435127 L6.535820,7.435127 L6.535820,9.774676 L8.555970,9.774676 L8.555970,15.777865 L10.971970,15.777865 Z" style="fill: rgba(255, 255, 255, 1.000000); stroke-width: 0.000000px; stroke: rgba(0, 0, 0, 1.000000); " fill="#ffffff" stroke="#000000" stroke-width="0.000000" />
</g></svg>